<?xml version="1.0" encoding="utf-8"?>
<!-- Generator: Adobe Illustrator 16.0.0, SVG Export Plug-In . SVG Version: 6.00 Build 0)  -->
<!DOCTYPE svg PUBLIC "-//W3C//DTD SVG 1.1//EN" "http://www.w3.org/Graphics/SVG/1.1/DTD/svg11.dtd">
<svg version="1.1" id="Layer_1" xmlns="http://www.w3.org/2000/svg" xmlns:xlink="http://www.w3.org/1999/xlink" x="0px" y="0px"
	 width="266px" height="288px" viewBox="0 0 266 288" enable-background="new 0 0 266 288" xml:space="preserve">
<ellipse fill="#C4C4C4" fill-opacity="0.3" cx="137" cy="252.5" rx="43" ry="4.5"/>
<g opacity="0.5">
	<path opacity="0.5" fill="#1E6BAE" enable-background="new    " d="M102.917,36.748c1.947,0,3.533-1.596,3.533-3.571
		s-1.586-3.571-3.533-3.571c-1.954,0-3.53,1.596-3.53,3.571C99.387,35.152,100.963,36.748,102.917,36.748z"/>
	<path opacity="0.5" fill="#1E6BAE" enable-background="new    " d="M116.771,36.748c1.954,0,3.531-1.596,3.531-3.571
		s-1.577-3.571-3.531-3.571c-1.953,0-3.533,1.596-3.533,3.571C113.239,35.152,114.818,36.748,116.771,36.748z"/>
	<path opacity="0.5" fill="#1E6BAE" enable-background="new    " d="M130.616,36.748c1.951,0,3.53-1.596,3.53-3.571
		s-1.58-3.571-3.53-3.571c-1.956,0-3.532,1.596-3.532,3.571C127.084,35.152,128.66,36.748,130.616,36.748z"/>
	<path opacity="0.5" fill="#1E6BAE" enable-background="new    " d="M144.468,33.253c0.037,0,0.074-0.028,0.074-0.076
		c0-0.038-0.037-0.076-0.074-0.076c-0.046,0-0.083,0.038-0.083,0.076C144.385,33.225,144.422,33.253,144.468,33.253z"/>
	<path opacity="0.5" fill="#1E6BAE" enable-background="new    " d="M158.313,36.71c1.934,0,3.492-1.576,3.492-3.533
		c0-1.946-1.559-3.533-3.492-3.533c-1.926,0-3.496,1.587-3.496,3.533C154.816,35.134,156.387,36.71,158.313,36.71z"/>
	<path opacity="0.5" fill="#1E6BAE" enable-background="new    " d="M172.164,35.314c1.166,0,2.115-0.959,2.115-2.137
		s-0.949-2.137-2.115-2.137c-1.174,0-2.113,0.958-2.113,2.137C170.051,34.354,170.99,35.314,172.164,35.314z"/>
	<path opacity="0.5" fill="#1E6BAE" enable-background="new    " d="M186.009,33.719c0.302,0,0.535-0.238,0.535-0.542
		c0-0.304-0.233-0.541-0.535-0.541c-0.293,0-0.536,0.237-0.536,0.541C185.473,33.481,185.715,33.719,186.009,33.719z"/>
	<path opacity="0.5" fill="#1E6BAE" enable-background="new    " d="M61.369,50.719c1.934,0,3.493-1.586,3.493-3.533
		c0-1.956-1.559-3.533-3.493-3.533c-1.927,0-3.493,1.576-3.493,3.533C57.876,49.133,59.442,50.719,61.369,50.719z"/>
	<path opacity="0.5" fill="#1E6BAE" enable-background="new    " d="M75.22,48.041c0.471,0,0.845-0.389,0.845-0.855
		c0-0.475-0.374-0.854-0.845-0.854c-0.467,0-0.845,0.38-0.845,0.854C74.375,47.651,74.753,48.041,75.22,48.041z"/>
	<path opacity="0.5" fill="#1E6BAE" enable-background="new    " d="M89.065,49.162c1.089,0,1.964-0.883,1.964-1.976
		c0-1.102-0.875-1.984-1.964-1.984c-1.079,0-1.954,0.883-1.954,1.984C87.111,48.279,87.986,49.162,89.065,49.162z"/>
	<path opacity="0.5" fill="#1E6BAE" enable-background="new    " d="M102.917,50.757c1.947,0,3.533-1.604,3.533-3.571
		c0-1.975-1.586-3.571-3.533-3.571c-1.954,0-3.53,1.596-3.53,3.571C99.387,49.153,100.963,50.757,102.917,50.757z"/>
	<path opacity="0.5" fill="#1E6BAE" enable-background="new    " d="M116.771,47.614c0.225,0,0.415-0.199,0.415-0.428
		c0-0.237-0.19-0.427-0.415-0.427c-0.243,0-0.434,0.19-0.434,0.427C116.337,47.414,116.528,47.614,116.771,47.614z"/>
	<path opacity="0.5" fill="#1E6BAE" enable-background="new    " d="M130.616,47.993c0.448,0,0.806-0.36,0.806-0.807
		c0-0.456-0.357-0.816-0.806-0.816c-0.454,0-0.807,0.361-0.807,0.816C129.809,47.633,130.162,47.993,130.616,47.993z"/>
	<path opacity="0.5" fill="#1E6BAE" enable-background="new    " d="M144.468,47.3c0.058,0,0.114-0.057,0.114-0.114
		c0-0.066-0.057-0.123-0.114-0.123c-0.065,0-0.122,0.057-0.122,0.123C144.344,47.243,144.402,47.3,144.468,47.3z"/>
	<path opacity="0.5" fill="#1E6BAE" enable-background="new    " d="M158.313,48.231c0.571,0,1.043-0.465,1.043-1.045
		c0-0.579-0.472-1.054-1.043-1.054c-0.573,0-1.035,0.476-1.035,1.054C157.277,47.766,157.739,48.231,158.313,48.231z"/>
	<path opacity="0.5" fill="#1E6BAE" enable-background="new    " d="M172.164,50.093c1.587,0,2.876-1.302,2.876-2.907
		c0-1.614-1.289-2.916-2.876-2.916c-1.596,0-2.881,1.302-2.881,2.916C169.283,48.791,170.568,50.093,172.164,50.093z"/>
	<path opacity="0.5" fill="#1E6BAE" enable-background="new    " d="M186.009,47.804c0.339,0,0.619-0.275,0.619-0.618
		c0-0.351-0.28-0.626-0.619-0.626c-0.34,0-0.61,0.276-0.61,0.626C185.398,47.528,185.669,47.804,186.009,47.804z"/>
	<path opacity="0.5" fill="#1E6BAE" enable-background="new    " d="M199.861,47.376c0.104,0,0.187-0.085,0.187-0.19
		c0-0.114-0.083-0.199-0.187-0.199s-0.197,0.085-0.197,0.199C199.664,47.291,199.758,47.376,199.861,47.376z"/>
	<path opacity="0.5" fill="#1E6BAE" enable-background="new    " d="M33.672,61.728c0.3,0,0.544-0.238,0.544-0.542
		c0-0.294-0.244-0.542-0.544-0.542c-0.301,0-0.534,0.247-0.534,0.542C33.138,61.49,33.372,61.728,33.672,61.728z"/>
	<path opacity="0.5" fill="#1E6BAE" enable-background="new    " d="M61.369,63.323c1.172,0,2.114-0.959,2.114-2.138
		c0-1.178-0.942-2.137-2.114-2.137c-1.166,0-2.114,0.959-2.114,2.137C59.255,62.364,60.204,63.323,61.369,63.323z"/>
	<path opacity="0.5" fill="#1E6BAE" enable-background="new    " d="M75.22,64.025c1.543,0,2.803-1.272,2.803-2.84
		c0-1.567-1.259-2.83-2.803-2.83c-1.55,0-2.798,1.263-2.798,2.83C72.421,62.753,73.67,64.025,75.22,64.025z"/>
	<path opacity="0.5" fill="#1E6BAE" enable-background="new    " d="M89.065,63.361c1.192,0,2.161-0.969,2.161-2.175
		c0-1.196-0.969-2.175-2.161-2.175c-1.182,0-2.14,0.979-2.14,2.175C86.925,62.392,87.883,63.361,89.065,63.361z"/>
	<path opacity="0.5" fill="#1E6BAE" enable-background="new    " d="M102.917,65.963c2.601,0,4.725-2.137,4.725-4.777
		s-2.124-4.777-4.725-4.777c-2.609,0-4.722,2.137-4.722,4.777S100.309,65.963,102.917,65.963z"/>
	<path opacity="0.5" fill="#1E6BAE" enable-background="new    " d="M116.771,66.581c2.95,0,5.334-2.413,5.334-5.395
		c0-2.982-2.384-5.395-5.334-5.395c-2.948,0-5.342,2.412-5.342,5.395S113.823,66.581,116.771,66.581z"/>
	<path opacity="0.5" fill="#1E6BAE" enable-background="new    " d="M130.616,64.833c1.991,0,3.606-1.624,3.606-3.647
		c0-2.013-1.616-3.647-3.606-3.647c-1.993,0-3.606,1.633-3.606,3.647C127.01,63.209,128.623,64.833,130.616,64.833z"/>
	<path opacity="0.5" fill="#1E6BAE" enable-background="new    " d="M144.468,64.833c1.991,0,3.607-1.624,3.607-3.647
		c0-2.013-1.616-3.647-3.607-3.647c-2,0-3.616,1.633-3.616,3.647C140.852,63.209,142.468,64.833,144.468,64.833z"/>
	<path opacity="0.5" fill="#1E6BAE" enable-background="new    " d="M158.313,62.24c0.571,0,1.043-0.474,1.043-1.054
		c0-0.58-0.472-1.044-1.043-1.044c-0.573,0-1.035,0.465-1.035,1.044C157.277,61.766,157.739,62.24,158.313,62.24z"/>
	<path opacity="0.5" fill="#1E6BAE" enable-background="new    " d="M172.164,62.117c0.508,0,0.922-0.417,0.922-0.931
		c0-0.513-0.414-0.93-0.922-0.93c-0.518,0-0.921,0.417-0.921,0.93C171.243,61.699,171.646,62.117,172.164,62.117z"/>
	<path opacity="0.5" fill="#1E6BAE" enable-background="new    " d="M186.01,65.925c2.592,0,4.686-2.118,4.686-4.739
		c0-2.611-2.094-4.739-4.686-4.739c-2.585,0-4.689,2.127-4.689,4.739C181.32,63.808,183.425,65.925,186.01,65.925z"/>
	<path opacity="0.5" fill="#1E6BAE" enable-background="new    " d="M199.861,61.813c0.337,0,0.611-0.285,0.611-0.627
		c0-0.342-0.273-0.618-0.611-0.618s-0.621,0.276-0.621,0.618C199.24,61.528,199.523,61.813,199.861,61.813z"/>
	<path opacity="0.5" fill="#1E6BAE" enable-background="new    " d="M33.672,75.385c0.113,0,0.187-0.085,0.187-0.19
		c0-0.114-0.074-0.199-0.187-0.199c-0.103,0-0.187,0.085-0.187,0.199C33.485,75.299,33.569,75.385,33.672,75.385z"/>
	<path opacity="0.5" fill="#1E6BAE" enable-background="new    " d="M47.513,76.316c0.621,0,1.119-0.503,1.119-1.121
		c0-0.626-0.498-1.129-1.119-1.129c-0.607,0-1.105,0.503-1.105,1.129C46.408,75.813,46.906,76.316,47.513,76.316z"/>
	<path opacity="0.5" fill="#1E6BAE" enable-background="new    " d="M61.369,77.95c1.513,0,2.731-1.235,2.731-2.755
		c0-1.529-1.218-2.763-2.731-2.763c-1.503,0-2.725,1.234-2.725,2.763C58.644,76.714,59.866,77.95,61.369,77.95z"/>
	<path opacity="0.5" fill="#1E6BAE" enable-background="new    " d="M75.22,79.421c2.311,0,4.191-1.89,4.191-4.227
		c0-2.336-1.88-4.236-4.191-4.236c-2.308,0-4.188,1.9-4.188,4.236C71.032,77.532,72.913,79.421,75.22,79.421z"/>
	<path opacity="0.5" fill="#1E6BAE" enable-background="new    " d="M89.065,78.88c2.021,0,3.644-1.652,3.644-3.686
		c0-2.042-1.623-3.694-3.644-3.694c-2.01,0-3.643,1.652-3.643,3.694C85.422,77.228,87.055,78.88,89.065,78.88z"/>
	<path opacity="0.5" fill="#1E6BAE" enable-background="new    " d="M102.917,78.187c1.636,0,2.958-1.339,2.958-2.992
		c0-1.652-1.322-2.991-2.958-2.991c-1.634,0-2.956,1.339-2.956,2.991C99.961,76.848,101.283,78.187,102.917,78.187z"/>
	<path opacity="0.5" fill="#1E6BAE" enable-background="new    " d="M116.771,79.935c2.582,0,4.675-2.128,4.675-4.74
		c0-2.621-2.093-4.739-4.675-4.739c-2.59,0-4.695,2.118-4.695,4.739C112.076,77.807,114.181,79.935,116.771,79.935z"/>
	<path opacity="0.5" fill="#1E6BAE" enable-background="new    " d="M130.616,79.849c2.546,0,4.603-2.081,4.603-4.655
		c0-2.574-2.057-4.663-4.603-4.663c-2.547,0-4.604,2.089-4.604,4.663C126.012,77.769,128.069,79.849,130.616,79.849z"/>
	<path opacity="0.5" fill="#1E6BAE" enable-background="new    " d="M144.468,78.918c2.027,0,3.681-1.662,3.681-3.724
		c0-2.061-1.653-3.732-3.681-3.732c-2.036,0-3.688,1.672-3.688,3.732C140.777,77.256,142.432,78.918,144.468,78.918z"/>
	<path opacity="0.5" fill="#1E6BAE" enable-background="new    " d="M158.313,79.773c2.506,0,4.535-2.052,4.535-4.579
		c0-2.536-2.029-4.587-4.535-4.587c-2.502,0-4.527,2.051-4.527,4.587C153.785,77.721,155.813,79.773,158.313,79.773z"/>
	<path opacity="0.5" fill="#1E6BAE" enable-background="new    " d="M172.164,78.415c1.757,0,3.184-1.444,3.184-3.22
		c0-1.786-1.427-3.229-3.184-3.229c-1.766,0-3.191,1.443-3.191,3.229C168.973,76.971,170.398,78.415,172.164,78.415z"/>
	<path opacity="0.5" fill="#1E6BAE" enable-background="new    " d="M186.009,77.094c1.042,0,1.888-0.854,1.888-1.9
		c0-1.053-0.846-1.908-1.888-1.908c-1.034,0-1.879,0.855-1.879,1.908C184.129,76.24,184.975,77.094,186.009,77.094z"/>
	<path opacity="0.5" fill="#1E6BAE" enable-background="new    " d="M199.861,75.499c0.17,0,0.311-0.132,0.311-0.304
		c0-0.17-0.14-0.313-0.311-0.313c-0.17,0-0.312,0.142-0.312,0.313C199.55,75.366,199.691,75.499,199.861,75.499z"/>
	<path opacity="0.5" fill="#1E6BAE" enable-background="new    " d="M213.706,75.813c0.347,0,0.618-0.276,0.618-0.618
		c0-0.342-0.271-0.626-0.618-0.626c-0.34,0-0.612,0.285-0.612,0.626C213.094,75.537,213.366,75.813,213.706,75.813z"/>
	<path opacity="0.5" fill="#1E6BAE" enable-background="new    " d="M33.672,89.821c0.337,0,0.618-0.284,0.618-0.627
		c0-0.342-0.281-0.618-0.618-0.618c-0.337,0-0.621,0.276-0.621,0.618C33.052,89.537,33.334,89.821,33.672,89.821z"/>
	<path opacity="0.5" fill="#1E6BAE" enable-background="new    " d="M47.513,90.552c0.755,0,1.356-0.607,1.356-1.357
		s-0.601-1.358-1.356-1.358c-0.731,0-1.332,0.608-1.332,1.358S46.782,90.552,47.513,90.552z"/>
	<path opacity="0.5" fill="#1E6BAE" enable-background="new    " d="M61.369,91.37c1.192,0,2.15-0.969,2.15-2.175
		c0-1.197-0.958-2.174-2.15-2.174s-2.151,0.978-2.151,2.174C59.218,90.4,60.177,91.37,61.369,91.37z"/>
	<path opacity="0.5" fill="#1E6BAE" enable-background="new    " d="M75.22,90.363c0.642,0,1.146-0.522,1.146-1.168
		c0-0.636-0.504-1.159-1.146-1.159c-0.637,0-1.155,0.522-1.155,1.159C74.065,89.841,74.583,90.363,75.22,90.363z"/>
	<path opacity="0.5" fill="#1E6BAE" enable-background="new    " d="M89.065,91.721c1.379,0,2.498-1.129,2.498-2.526
		c0-1.396-1.119-2.518-2.498-2.518c-1.373,0-2.498,1.121-2.498,2.518S87.692,91.721,89.065,91.721z"/>
	<path opacity="0.5" fill="#1E6BAE" enable-background="new    " d="M102.917,93.744c2.481,0,4.491-2.032,4.491-4.549
		c0-2.507-2.01-4.54-4.491-4.54c-2.488,0-4.499,2.033-4.499,4.54C98.418,91.711,100.429,93.744,102.917,93.744z"/>
	<path opacity="0.5" fill="#1E6BAE" enable-background="new    " d="M116.771,93.896c2.565,0,4.639-2.099,4.639-4.701
		c0-2.593-2.074-4.692-4.639-4.692c-2.574,0-4.648,2.099-4.648,4.692C112.123,91.797,114.197,93.896,116.771,93.896z"/>
	<path opacity="0.5" fill="#1E6BAE" enable-background="new    " d="M130.616,93.935c2.592,0,4.686-2.118,4.686-4.74
		c0-2.612-2.094-4.73-4.686-4.73c-2.594,0-4.688,2.118-4.688,4.73C125.928,91.816,128.022,93.935,130.616,93.935z"/>
	<path opacity="0.5" fill="#1E6BAE" enable-background="new    " d="M144.468,93.43c2.312,0,4.181-1.89,4.181-4.236
		c0-2.336-1.869-4.227-4.181-4.227c-2.321,0-4.187,1.89-4.187,4.227C140.281,91.54,142.146,93.43,144.468,93.43z"/>
	<path opacity="0.5" fill="#1E6BAE" enable-background="new    " d="M158.313,93.003c2.074,0,3.765-1.7,3.765-3.809
		c0-2.098-1.69-3.799-3.765-3.799c-2.076,0-3.767,1.701-3.767,3.799C154.546,91.303,156.236,93.003,158.313,93.003z"/>
	<path opacity="0.5" fill="#1E6BAE" enable-background="new    " d="M172.164,90.677c0.809,0,1.456-0.666,1.456-1.482
		c0-0.817-0.647-1.472-1.456-1.472c-0.807,0-1.466,0.655-1.466,1.472C170.699,90.011,171.357,90.677,172.164,90.677z"/>
	<path opacity="0.5" fill="#1E6BAE" enable-background="new    " d="M186.01,92.728c1.934,0,3.492-1.577,3.492-3.533
		c0-1.947-1.559-3.533-3.492-3.533c-1.927,0-3.496,1.586-3.496,3.533C182.514,91.151,184.082,92.728,186.01,92.728z"/>
	<path opacity="0.5" fill="#1E6BAE" enable-background="new    " d="M199.861,90.211c0.554,0,0.994-0.456,0.994-1.017
		c0-0.551-0.439-1.007-0.994-1.007s-0.995,0.457-0.995,1.007C198.866,89.755,199.307,90.211,199.861,90.211z"/>
	<path opacity="0.5" fill="#1E6BAE" enable-background="new    " d="M213.706,93.935c2.591,0,4.685-2.118,4.685-4.74
		c0-2.612-2.094-4.73-4.685-4.73c-2.585,0-4.679,2.118-4.679,4.73C209.027,91.816,211.121,93.935,213.706,93.935z"/>
	<path opacity="0.5" fill="#1E6BAE" enable-background="new    " d="M227.559,89.746c0.301,0,0.533-0.247,0.533-0.551
		c0-0.294-0.232-0.542-0.533-0.542c-0.302,0-0.535,0.248-0.535,0.542C227.023,89.499,227.257,89.746,227.559,89.746z"/>
	<path opacity="0.5" fill="#1E6BAE" enable-background="new    " d="M33.672,104.952c0.958,0,1.727-0.78,1.727-1.748
		c0-0.969-0.768-1.747-1.727-1.747s-1.729,0.778-1.729,1.747C31.942,104.172,32.714,104.952,33.672,104.952z"/>
	<path opacity="0.5" fill="#1E6BAE" enable-background="new    " d="M47.513,104.714c0.829,0,1.503-0.674,1.503-1.51
		s-0.675-1.52-1.503-1.52c-0.825,0-1.492,0.684-1.492,1.52S46.689,104.714,47.513,104.714z"/>
	<path opacity="0.5" fill="#1E6BAE" enable-background="new    " d="M61.369,106.737c1.934,0,3.493-1.586,3.493-3.533
		c0-1.956-1.559-3.534-3.493-3.534c-1.927,0-3.493,1.577-3.493,3.534C57.876,105.151,59.442,106.737,61.369,106.737z"/>
	<path opacity="0.5" fill="#1E6BAE" enable-background="new    " d="M75.22,104.752c0.845,0,1.543-0.694,1.543-1.548
		c0-0.855-0.698-1.558-1.543-1.558s-1.54,0.703-1.54,1.558C73.68,104.058,74.375,104.752,75.22,104.752z"/>
	<path opacity="0.5" fill="#1E6BAE" enable-background="new    " d="M89.065,105.341c1.166,0,2.115-0.96,2.115-2.137
		c0-1.179-0.949-2.138-2.115-2.138c-1.165,0-2.104,0.959-2.104,2.138C86.961,104.381,87.9,105.341,89.065,105.341z"/>
	<path opacity="0.5" fill="#1E6BAE" enable-background="new    " d="M102.917,106.072c1.569,0,2.848-1.282,2.848-2.868
		s-1.279-2.878-2.848-2.878c-1.566,0-2.846,1.292-2.846,2.878C100.072,104.79,101.351,106.072,102.917,106.072z"/>
	<path opacity="0.5" fill="#1E6BAE" enable-background="new    " d="M116.771,107.202c2.178,0,3.944-1.785,3.944-3.998
		c0-2.214-1.767-4-3.944-4c-2.187,0-3.963,1.786-3.963,4C112.808,105.417,114.584,107.202,116.771,107.202z"/>
	<path opacity="0.5" fill="#1E6BAE" enable-background="new    " d="M130.616,106.964c2.054,0,3.717-1.681,3.717-3.76
		c0-2.08-1.663-3.771-3.717-3.771c-2.056,0-3.719,1.691-3.719,3.771S128.559,106.964,130.616,106.964z"/>
	<path opacity="0.5" fill="#1E6BAE" enable-background="new    " d="M144.468,106.309c1.69,0,3.072-1.386,3.072-3.105
		c0-1.719-1.382-3.106-3.072-3.106c-1.698,0-3.071,1.386-3.071,3.106C141.396,104.923,142.77,106.309,144.468,106.309z"/>
	<path opacity="0.5" fill="#1E6BAE" enable-background="new    " d="M158.313,106.309c1.699,0,3.069-1.386,3.069-3.105
		c0-1.719-1.37-3.106-3.069-3.106c-1.703,0-3.071,1.386-3.071,3.106C155.241,104.923,156.609,106.309,158.313,106.309z"/>
	<path opacity="0.5" fill="#1E6BAE" enable-background="new    " d="M172.164,105.028c0.996,0,1.804-0.816,1.804-1.824
		c0-1.007-0.808-1.823-1.804-1.823c-0.995,0-1.803,0.816-1.803,1.823C170.361,104.212,171.169,105.028,172.164,105.028z"/>
	<path opacity="0.5" fill="#1E6BAE" enable-background="new    " d="M186.01,105.996c1.529,0,2.768-1.244,2.768-2.792
		s-1.238-2.792-2.768-2.792c-1.523,0-2.762,1.244-2.762,2.792S184.486,105.996,186.01,105.996z"/>
	<path opacity="0.5" fill="#1E6BAE" enable-background="new    " d="M199.861,105.378c1.182,0,2.15-0.978,2.15-2.174
		c0-1.207-0.969-2.176-2.15-2.176c-1.192,0-2.151,0.969-2.151,2.176C197.71,104.4,198.669,105.378,199.861,105.378z"/>
	<path opacity="0.5" fill="#1E6BAE" enable-background="new    " d="M213.706,105.958c1.509,0,2.731-1.234,2.731-2.754
		c0-1.519-1.223-2.754-2.731-2.754c-1.502,0-2.726,1.235-2.726,2.754C210.98,104.724,212.204,105.958,213.706,105.958z"/>
	<path opacity="0.5" fill="#1E6BAE" enable-background="new    " d="M227.559,105.341c1.164,0,2.113-0.96,2.113-2.137
		c0-1.179-0.949-2.138-2.113-2.138c-1.166,0-2.115,0.959-2.115,2.138C225.443,104.381,226.393,105.341,227.559,105.341z"/>
	<path opacity="0.5" fill="#1E6BAE" enable-background="new    " d="M33.672,121.44c2.311,0,4.188-1.891,4.188-4.237
		c0-2.336-1.877-4.226-4.188-4.226s-4.191,1.89-4.191,4.226C29.481,119.549,31.361,121.44,33.672,121.44z"/>
	<path opacity="0.5" fill="#1E6BAE" enable-background="new    " d="M47.513,121.401c2.294,0,4.155-1.88,4.155-4.198
		c0-2.318-1.86-4.188-4.155-4.188c-2.291,0-4.14,1.871-4.14,4.188C43.373,119.521,45.223,121.401,47.513,121.401z"/>
	<path opacity="0.5" fill="#1E6BAE" enable-background="new    " d="M61.369,120.005c1.529,0,2.771-1.253,2.771-2.802
		c0-1.538-1.242-2.793-2.771-2.793c-1.533,0-2.761,1.255-2.761,2.793C58.607,118.752,59.836,120.005,61.369,120.005z"/>
	<path opacity="0.5" fill="#1E6BAE" enable-background="new    " d="M75.22,118.913c0.932,0,1.693-0.76,1.693-1.71
		c0-0.941-0.762-1.7-1.693-1.7c-0.938,0-1.689,0.759-1.689,1.7C73.53,118.153,74.281,118.913,75.22,118.913z"/>
	<path opacity="0.5" fill="#1E6BAE" enable-background="new    " d="M89.065,119.264c1.126,0,2.037-0.922,2.037-2.061
		c0-1.13-0.912-2.052-2.037-2.052c-1.125,0-2.027,0.922-2.027,2.052C87.038,118.343,87.94,119.264,89.065,119.264z"/>
	<path opacity="0.5" fill="#1E6BAE" enable-background="new    " d="M102.917,119.378c1.195,0,2.153-0.968,2.153-2.175
		c0-1.197-0.957-2.175-2.153-2.175c-1.193,0-2.151,0.978-2.151,2.175C100.766,118.41,101.725,119.378,102.917,119.378z"/>
	<path opacity="0.5" fill="#1E6BAE" enable-background="new    " d="M116.771,120.357c1.71,0,3.1-1.416,3.1-3.154
		c0-1.738-1.39-3.144-3.1-3.144c-1.729,0-3.119,1.406-3.119,3.144C113.652,118.941,115.042,120.357,116.771,120.357z"/>
	<path opacity="0.5" fill="#1E6BAE" enable-background="new    " d="M130.616,120.432c1.764,0,3.192-1.443,3.192-3.229
		c0-1.775-1.429-3.219-3.192-3.219c-1.766,0-3.195,1.444-3.195,3.219C127.421,118.989,128.85,120.432,130.616,120.432z"/>
	<path opacity="0.5" fill="#1E6BAE" enable-background="new    " d="M144.468,121.477c2.328,0,4.218-1.909,4.218-4.274
		c0-2.355-1.89-4.264-4.218-4.264c-2.337,0-4.227,1.909-4.227,4.264C140.241,119.568,142.131,121.477,144.468,121.477z"/>
	<path opacity="0.5" fill="#1E6BAE" enable-background="new    " d="M158.313,121.088c2.121,0,3.84-1.738,3.84-3.885
		c0-2.136-1.719-3.875-3.84-3.875c-2.123,0-3.844,1.739-3.844,3.875C154.469,119.35,156.189,121.088,158.313,121.088z"/>
	<path opacity="0.5" fill="#1E6BAE" enable-background="new    " d="M172.164,120.699c1.906,0,3.457-1.558,3.457-3.496
		c0-1.928-1.551-3.495-3.457-3.495c-1.916,0-3.456,1.567-3.456,3.495C168.708,119.141,170.248,120.699,172.164,120.699z"/>
	<path opacity="0.5" fill="#1E6BAE" enable-background="new    " d="M186.009,120.432c1.765,0,3.193-1.443,3.193-3.229
		c0-1.775-1.429-3.219-3.193-3.219c-1.755,0-3.185,1.444-3.185,3.219C182.824,118.989,184.254,120.432,186.009,120.432z"/>
	<path opacity="0.5" fill="#1E6BAE" enable-background="new    " d="M199.861,117.868c0.357,0,0.647-0.294,0.647-0.665
		c0-0.361-0.29-0.655-0.647-0.655c-0.367,0-0.657,0.294-0.657,0.655C199.204,117.574,199.494,117.868,199.861,117.868z"/>
	<path opacity="0.5" fill="#1E6BAE" enable-background="new    " d="M213.706,118.258c0.569,0,1.042-0.475,1.042-1.054
		s-0.473-1.045-1.042-1.045c-0.574,0-1.035,0.466-1.035,1.045S213.132,118.258,213.706,118.258z"/>
	<path opacity="0.5" fill="#1E6BAE" enable-background="new    " d="M227.559,119.341c1.164,0,2.113-0.95,2.113-2.138
		c0-1.178-0.949-2.127-2.113-2.127c-1.166,0-2.115,0.949-2.115,2.127C225.443,118.39,226.393,119.341,227.559,119.341z"/>
	<path opacity="0.5" fill="#1E6BAE" enable-background="new    " d="M241.402,120.736c1.934,0,3.504-1.576,3.504-3.533
		c0-1.946-1.57-3.533-3.504-3.533c-1.926,0-3.492,1.587-3.492,3.533C237.91,119.16,239.477,120.736,241.402,120.736z"/>
	<path opacity="0.5" fill="#1E6BAE" enable-background="new    " d="M33.672,135.951c2.591,0,4.685-2.117,4.685-4.739
		c0-2.621-2.094-4.739-4.685-4.739c-2.591,0-4.678,2.118-4.678,4.739C28.994,133.834,31.081,135.951,33.672,135.951z"/>
	<path opacity="0.5" fill="#1E6BAE" enable-background="new    " d="M47.513,133.112c1.055,0,1.891-0.845,1.891-1.9
		c0-1.053-0.835-1.899-1.891-1.899c-1.032,0-1.876,0.845-1.876,1.899C45.637,132.267,46.481,133.112,47.513,133.112z"/>
	<path opacity="0.5" fill="#1E6BAE" enable-background="new    " d="M61.369,133.54c1.269,0,2.301-1.035,2.301-2.328
		c0-1.291-1.032-2.327-2.301-2.327c-1.27,0-2.301,1.036-2.301,2.327C59.067,132.505,60.099,133.54,61.369,133.54z"/>
	<path opacity="0.5" fill="#1E6BAE" enable-background="new    " d="M75.22,136.066c2.648,0,4.802-2.176,4.802-4.854
		c0-2.678-2.154-4.853-4.802-4.853s-4.808,2.175-4.808,4.853C70.412,133.89,72.572,136.066,75.22,136.066z"/>
	<path opacity="0.5" fill="#1E6BAE" enable-background="new    " d="M89.065,134.822c1.974,0,3.57-1.615,3.57-3.61
		s-1.596-3.609-3.57-3.609c-1.974,0-3.57,1.614-3.57,3.609S87.091,134.822,89.065,134.822z"/>
	<path opacity="0.5" fill="#1E6BAE" enable-background="new    " d="M102.917,135.097c2.124,0,3.843-1.739,3.843-3.885
		s-1.719-3.883-3.843-3.883c-2.121,0-3.841,1.737-3.841,3.883S100.796,135.097,102.917,135.097z"/>
	<path opacity="0.5" fill="#1E6BAE" enable-background="new    " d="M116.771,135.173c2.161,0,3.908-1.776,3.908-3.961
		c0-2.184-1.747-3.96-3.908-3.96c-2.17,0-3.926,1.776-3.926,3.96C112.845,133.397,114.601,135.173,116.771,135.173z"/>
	<path opacity="0.5" fill="#1E6BAE" enable-background="new    " d="M130.616,133.966c1.504,0,2.722-1.234,2.722-2.754
		c0-1.519-1.218-2.754-2.722-2.754c-1.502,0-2.724,1.235-2.724,2.754C127.891,132.732,129.114,133.966,130.616,133.966z"/>
	<path opacity="0.5" fill="#1E6BAE" enable-background="new    " d="M144.468,134.432c1.757,0,3.183-1.444,3.183-3.22
		s-1.426-3.22-3.183-3.22c-1.766,0-3.192,1.444-3.192,3.22S142.702,134.432,144.468,134.432z"/>
	<path opacity="0.5" fill="#1E6BAE" enable-background="new    " d="M158.313,134.983c2.058,0,3.727-1.69,3.727-3.77
		c0-2.079-1.669-3.771-3.727-3.771c-2.057,0-3.72,1.692-3.72,3.771S156.256,134.983,158.313,134.983z"/>
	<path opacity="0.5" fill="#1E6BAE" enable-background="new    " d="M172.164,134.708c1.906,0,3.457-1.568,3.457-3.496
		c0-1.927-1.551-3.494-3.457-3.494c-1.916,0-3.456,1.567-3.456,3.494C168.708,133.14,170.248,134.708,172.164,134.708z"/>
	<path opacity="0.5" fill="#1E6BAE" enable-background="new    " d="M186.01,135.059c2.104,0,3.805-1.719,3.805-3.847
		c0-2.127-1.701-3.847-3.805-3.847c-2.097,0-3.797,1.72-3.797,3.847C182.213,133.34,183.912,135.059,186.01,135.059z"/>
	<path opacity="0.5" fill="#1E6BAE" enable-background="new    " d="M199.861,135.562c2.377,0,4.301-1.947,4.301-4.35
		c0-2.403-1.923-4.35-4.301-4.35c-2.377,0-4.301,1.947-4.301,4.35C195.561,133.615,197.484,135.562,199.861,135.562z"/>
	<path opacity="0.5" fill="#1E6BAE" enable-background="new    " d="M213.706,131.602c0.214,0,0.384-0.171,0.384-0.39
		c0-0.218-0.17-0.389-0.384-0.389c-0.207,0-0.388,0.171-0.388,0.389C213.318,131.431,213.499,131.602,213.706,131.602z"/>
	<path opacity="0.5" fill="#1E6BAE" enable-background="new    " d="M227.559,132.257c0.573,0,1.034-0.466,1.034-1.045
		s-0.461-1.045-1.034-1.045c-0.572,0-1.033,0.466-1.033,1.045S226.986,132.257,227.559,132.257z"/>
	<path opacity="0.5" fill="#1E6BAE" enable-background="new    " d="M19.827,145.488c0.151,0,0.264-0.124,0.264-0.276
		c0-0.151-0.113-0.267-0.264-0.267c-0.15,0-0.27,0.115-0.27,0.267C19.557,145.364,19.677,145.488,19.827,145.488z"/>
	<path opacity="0.5" fill="#1E6BAE" enable-background="new    " d="M47.513,146.342c0.621,0,1.119-0.503,1.119-1.13
		c0-0.616-0.498-1.12-1.119-1.12c-0.607,0-1.105,0.504-1.105,1.12C46.408,145.839,46.906,146.342,47.513,146.342z"/>
	<path opacity="0.5" fill="#1E6BAE" enable-background="new    " d="M61.369,149.563c2.374,0,4.301-1.947,4.301-4.351
		c0-2.404-1.926-4.35-4.301-4.35c-2.378,0-4.291,1.946-4.291,4.35C57.078,147.615,58.991,149.563,61.369,149.563z"/>
	<path opacity="0.5" fill="#1E6BAE" enable-background="new    " d="M75.22,149.448c2.311,0,4.191-1.89,4.191-4.236
		c0-2.335-1.88-4.226-4.191-4.226c-2.308,0-4.188,1.891-4.188,4.226C71.032,147.559,72.913,149.448,75.22,149.448z"/>
	<path opacity="0.5" fill="#1E6BAE" enable-background="new    " d="M89.065,148.318c1.7,0,3.082-1.387,3.082-3.106
		c0-1.709-1.382-3.106-3.082-3.106c-1.689,0-3.062,1.397-3.062,3.106C86.003,146.932,87.375,148.318,89.065,148.318z"/>
	<path opacity="0.5" fill="#1E6BAE" enable-background="new    " d="M102.917,148.982c2.057,0,3.73-1.69,3.73-3.771
		c0-2.079-1.673-3.761-3.73-3.761c-2.054,0-3.727,1.682-3.727,3.761C99.19,147.292,100.863,148.982,102.917,148.982z"/>
	<path opacity="0.5" fill="#1E6BAE" enable-background="new    " d="M116.771,148.441c1.757,0,3.183-1.443,3.183-3.229
		c0-1.776-1.426-3.219-3.183-3.219c-1.766,0-3.191,1.443-3.191,3.219C113.58,146.998,115.005,148.441,116.771,148.441z"/>
	<path opacity="0.5" fill="#1E6BAE" enable-background="new    " d="M130.616,147.975c1.504,0,2.722-1.234,2.722-2.763
		c0-1.52-1.218-2.755-2.722-2.755c-1.502,0-2.724,1.235-2.724,2.755C127.891,146.74,129.114,147.975,130.616,147.975z"/>
	<path opacity="0.5" fill="#1E6BAE" enable-background="new    " d="M144.468,148.831c1.974,0,3.57-1.624,3.57-3.619
		c0-1.993-1.597-3.61-3.57-3.61c-1.983,0-3.579,1.617-3.579,3.61C140.889,147.207,142.484,148.831,144.468,148.831z"/>
	<path opacity="0.5" fill="#1E6BAE" enable-background="new    " d="M158.313,148.479c1.783,0,3.229-1.461,3.229-3.267
		c0-1.795-1.446-3.259-3.229-3.259c-1.787,0-3.222,1.464-3.222,3.259C155.091,147.018,156.525,148.479,158.313,148.479z"/>
	<path opacity="0.5" fill="#1E6BAE" enable-background="new    " d="M172.164,149.248c2.207,0,3.991-1.805,3.991-4.036
		c0-2.231-1.784-4.036-3.991-4.036c-2.206,0-3.99,1.805-3.99,4.036C168.174,147.443,169.958,149.248,172.164,149.248z"/>
	<path opacity="0.5" fill="#1E6BAE" enable-background="new    " d="M186.01,149.875c2.545,0,4.611-2.089,4.611-4.663
		c0-2.574-2.066-4.653-4.611-4.653c-2.548,0-4.602,2.079-4.602,4.653C181.408,147.786,183.462,149.875,186.01,149.875z"/>
	<path opacity="0.5" fill="#1E6BAE" enable-background="new    " d="M199.861,149.952c2.584,0,4.688-2.119,4.688-4.74
		c0-2.612-2.104-4.73-4.688-4.73c-2.592,0-4.686,2.118-4.686,4.73C195.176,147.833,197.27,149.952,199.861,149.952z"/>
	<path opacity="0.5" fill="#1E6BAE" enable-background="new    " d="M213.706,145.915c0.384,0,0.694-0.315,0.694-0.703
		c0-0.38-0.311-0.694-0.694-0.694c-0.378,0-0.688,0.314-0.688,0.694C213.018,145.602,213.328,145.915,213.706,145.915z"/>
	<path opacity="0.5" fill="#1E6BAE" enable-background="new    " d="M227.559,145.373c0.084,0,0.149-0.076,0.149-0.161
		c0-0.086-0.065-0.151-0.149-0.151s-0.15,0.065-0.15,0.151C227.408,145.297,227.475,145.373,227.559,145.373z"/>
	<path opacity="0.5" fill="#1E6BAE" enable-background="new    " d="M33.672,159.764c0.3,0,0.544-0.248,0.544-0.543
		c0-0.303-0.244-0.541-0.544-0.541c-0.301,0-0.534,0.238-0.534,0.541C33.138,159.516,33.372,159.764,33.672,159.764z"/>
	<path opacity="0.5" fill="#1E6BAE" enable-background="new    " d="M47.513,164.303c2.782,0,5.036-2.27,5.036-5.082
		c0-2.812-2.254-5.09-5.036-5.09c-2.778,0-5.022,2.278-5.022,5.09C42.491,162.033,44.735,164.303,47.513,164.303z"/>
	<path opacity="0.5" fill="#1E6BAE" enable-background="new    " d="M61.369,163.572c2.374,0,4.301-1.948,4.301-4.352
		c0-2.402-1.926-4.351-4.301-4.351c-2.378,0-4.291,1.948-4.291,4.351C57.078,161.624,58.991,163.572,61.369,163.572z"/>
	<path opacity="0.5" fill="#1E6BAE" enable-background="new    " d="M75.22,163.143c2.144,0,3.871-1.756,3.871-3.922
		c0-2.164-1.727-3.922-3.871-3.922c-2.141,0-3.877,1.758-3.877,3.922C71.344,161.387,73.079,163.143,75.22,163.143z"/>
	<path opacity="0.5" fill="#1E6BAE" enable-background="new    " d="M89.065,163.257c2.208,0,4.001-1.803,4.001-4.036
		c0-2.231-1.793-4.035-4.001-4.035c-2.197,0-3.99,1.804-3.99,4.035C85.075,161.454,86.868,163.257,89.065,163.257z"/>
	<path opacity="0.5" fill="#1E6BAE" enable-background="new    " d="M102.917,163.723c2.46,0,4.454-2.014,4.454-4.502
		s-1.993-4.502-4.454-4.502c-2.458,0-4.458,2.014-4.458,4.502S100.459,163.723,102.917,163.723z"/>
	<path opacity="0.5" fill="#1E6BAE" enable-background="new    " d="M116.771,162.641c1.86,0,3.373-1.529,3.373-3.42
		c0-1.89-1.513-3.42-3.373-3.42c-1.879,0-3.383,1.53-3.383,3.42C113.389,161.111,114.892,162.641,116.771,162.641z"/>
	<path opacity="0.5" fill="#1E6BAE" enable-background="new    " d="M130.616,162.128c1.598,0,2.872-1.301,2.872-2.907
		c0-1.615-1.275-2.914-2.872-2.914c-1.599,0-2.874,1.299-2.874,2.914C127.741,160.827,129.017,162.128,130.616,162.128z"/>
	<path opacity="0.5" fill="#1E6BAE" enable-background="new    " d="M144.468,162.641c1.86,0,3.373-1.529,3.373-3.42
		c0-1.89-1.513-3.42-3.373-3.42c-1.87,0-3.383,1.53-3.383,3.42C141.085,161.111,142.598,162.641,144.468,162.641z"/>
	<path opacity="0.5" fill="#1E6BAE" enable-background="new    " d="M158.313,163.182c2.168,0,3.914-1.777,3.914-3.961
		c0-2.193-1.746-3.961-3.914-3.961c-2.16,0-3.916,1.768-3.916,3.961C154.396,161.404,156.152,163.182,158.313,163.182z"/>
	<path opacity="0.5" fill="#1E6BAE" enable-background="new    " d="M172.164,163.761c2.479,0,4.488-2.032,4.488-4.54
		c0-2.507-2.01-4.539-4.488-4.539c-2.487,0-4.498,2.032-4.498,4.539C167.667,161.729,169.677,163.761,172.164,163.761z"/>
	<path opacity="0.5" fill="#1E6BAE" enable-background="new    " d="M186.009,164.113c2.677,0,4.836-2.195,4.836-4.893
		c0-2.705-2.159-4.892-4.836-4.892c-2.668,0-4.838,2.185-4.838,4.892C181.171,161.918,183.341,164.113,186.009,164.113z"/>
	<path opacity="0.5" fill="#1E6BAE" enable-background="new    " d="M199.861,163.495c2.33,0,4.228-1.918,4.228-4.274
		c0-2.363-1.897-4.272-4.228-4.272c-2.338,0-4.229,1.909-4.229,4.272C195.633,161.577,197.523,163.495,199.861,163.495z"/>
	<path opacity="0.5" fill="#1E6BAE" enable-background="new    " d="M213.706,163.068c2.104,0,3.803-1.729,3.803-3.848
		c0-2.127-1.698-3.846-3.803-3.846c-2.097,0-3.797,1.719-3.797,3.846C209.909,161.34,211.609,163.068,213.706,163.068z"/>
	<path opacity="0.5" fill="#1E6BAE" enable-background="new    " d="M227.559,162.793c1.952,0,3.532-1.596,3.532-3.572
		c0-1.976-1.579-3.572-3.532-3.572c-1.955,0-3.531,1.597-3.531,3.572C224.027,161.197,225.604,162.793,227.559,162.793z"/>
	<path opacity="0.5" fill="#1E6BAE" enable-background="new    " d="M33.672,177.533c2.357,0,4.264-1.93,4.264-4.313
		c0-2.375-1.907-4.303-4.264-4.303c-2.348,0-4.265,1.928-4.265,4.303C29.407,175.604,31.325,177.533,33.672,177.533z"/>
	<path opacity="0.5" fill="#1E6BAE" enable-background="new    " d="M47.513,173.771c0.301,0,0.548-0.246,0.548-0.551
		c0-0.295-0.247-0.541-0.548-0.541c-0.29,0-0.524,0.246-0.524,0.541C46.99,173.525,47.224,173.771,47.513,173.771z"/>
	<path opacity="0.5" fill="#1E6BAE" enable-background="new    " d="M61.369,177.533c2.357,0,4.264-1.93,4.264-4.313
		c0-2.375-1.907-4.303-4.264-4.303s-4.254,1.928-4.254,4.303C57.114,175.604,59.011,177.533,61.369,177.533z"/>
	<path opacity="0.5" fill="#1E6BAE" enable-background="new    " d="M75.22,176.992c2.057,0,3.721-1.682,3.721-3.77
		c0-2.08-1.664-3.764-3.721-3.764c-2.063,0-3.727,1.684-3.727,3.764C71.494,175.311,73.157,176.992,75.22,176.992z"/>
	<path opacity="0.5" fill="#1E6BAE" enable-background="new    " d="M89.065,178.121c2.678,0,4.845-2.193,4.845-4.898
		c0-2.699-2.167-4.893-4.845-4.893c-2.668,0-4.835,2.193-4.835,4.893C84.229,175.928,86.397,178.121,89.065,178.121z"/>
	<path opacity="0.5" fill="#1E6BAE" enable-background="new    " d="M102.917,177.229c2.191,0,3.957-1.793,3.957-4.008
		c0-2.203-1.766-3.998-3.957-3.998c-2.187,0-3.954,1.795-3.954,3.998C98.963,175.434,100.73,177.229,102.917,177.229z"/>
	<path opacity="0.5" fill="#1E6BAE" enable-background="new    " d="M116.771,176.326c1.69,0,3.063-1.387,3.063-3.105
		c0-1.71-1.373-3.105-3.063-3.105c-1.709,0-3.082,1.396-3.082,3.105C113.69,174.939,115.062,176.326,116.771,176.326z"/>
	<path opacity="0.5" fill="#1E6BAE" enable-background="new    " d="M130.616,176.564c1.821,0,3.307-1.491,3.307-3.344
		c0-1.843-1.486-3.334-3.307-3.334c-1.822,0-3.305,1.491-3.305,3.334C127.31,175.073,128.793,176.564,130.616,176.564z"/>
	<path opacity="0.5" fill="#1E6BAE" enable-background="new    " d="M144.468,175.244c1.099,0,1.991-0.902,1.991-2.023
		c0-1.111-0.893-2.015-1.991-2.015c-1.108,0-2,0.903-2,2.015C142.468,174.342,143.359,175.244,144.468,175.244z"/>
	<path opacity="0.5" fill="#1E6BAE" enable-background="new    " d="M158.313,174.93c0.938,0,1.69-0.759,1.69-1.707
		c0-0.941-0.752-1.701-1.69-1.701c-0.932,0-1.692,0.76-1.692,1.701C156.62,174.171,157.382,174.93,158.313,174.93z"/>
	<path opacity="0.5" fill="#1E6BAE" enable-background="new    " d="M172.164,177.77c2.479,0,4.488-2.031,4.488-4.549
		c0-2.508-2.01-4.539-4.488-4.539c-2.487,0-4.498,2.031-4.498,4.539C167.667,175.736,169.677,177.77,172.164,177.77z"/>
	<path opacity="0.5" fill="#1E6BAE" enable-background="new    " d="M186.009,176.212c1.634,0,2.959-1.338,2.959-2.989
		c0-1.645-1.325-2.984-2.959-2.984c-1.636,0-2.958,1.339-2.958,2.984C183.051,174.873,184.373,176.212,186.009,176.212z"/>
	<path opacity="0.5" fill="#1E6BAE" enable-background="new    " d="M199.861,177.998c2.611,0,4.726-2.139,4.726-4.777
		c0-2.632-2.114-4.768-4.726-4.768s-4.726,2.137-4.726,4.768C195.136,175.861,197.25,177.998,199.861,177.998z"/>
	<path opacity="0.5" fill="#1E6BAE" enable-background="new    " d="M213.706,173.734c0.28,0,0.507-0.229,0.507-0.512
		c0-0.277-0.227-0.505-0.507-0.505c-0.274,0-0.498,0.228-0.498,0.505C213.209,173.506,213.432,173.734,213.706,173.734z"/>
	<path opacity="0.5" fill="#1E6BAE" enable-background="new    " d="M241.402,173.383c0.094,0,0.16-0.076,0.16-0.162
		s-0.066-0.152-0.16-0.152c-0.086,0-0.149,0.066-0.149,0.152S241.316,173.383,241.402,173.383z"/>
	<path opacity="0.5" fill="#1E6BAE" enable-background="new    " d="M33.672,188.55c0.721,0,1.305-0.588,1.305-1.319
		s-0.584-1.32-1.305-1.32c-0.714,0-1.305,0.589-1.305,1.32C32.367,187.962,32.958,188.55,33.672,188.55z"/>
	<path opacity="0.5" fill="#1E6BAE" enable-background="new    " d="M47.513,188.359c0.621,0,1.119-0.512,1.119-1.131
		c0-0.625-0.498-1.129-1.119-1.129c-0.607,0-1.105,0.504-1.105,1.129C46.408,187.848,46.906,188.359,47.513,188.359z"/>
	<path opacity="0.5" fill="#1E6BAE" enable-background="new    " d="M61.369,188.741c0.834,0,1.493-0.677,1.493-1.511
		c0-0.836-0.658-1.51-1.493-1.51c-0.828,0-1.493,0.674-1.493,1.51C59.875,188.064,60.541,188.741,61.369,188.741z"/>
	<path opacity="0.5" fill="#1E6BAE" enable-background="new    " d="M75.22,191.693c2.445,0,4.415-1.994,4.415-4.463
		c0-2.47-1.97-4.463-4.415-4.463c-2.44,0-4.411,1.992-4.411,4.463C70.809,189.699,72.779,191.693,75.22,191.693z"/>
	<path opacity="0.5" fill="#1E6BAE" enable-background="new    " d="M89.065,191.809c2.508,0,4.528-2.043,4.528-4.578
		c0-2.537-2.021-4.578-4.528-4.578c-2.498,0-4.528,2.041-4.528,4.578C84.537,189.766,86.567,191.809,89.065,191.809z"/>
	<path opacity="0.5" fill="#1E6BAE" enable-background="new    " d="M102.917,191.189c2.17,0,3.917-1.774,3.917-3.961
		c0-2.184-1.747-3.959-3.917-3.959c-2.167,0-3.914,1.775-3.914,3.959C99.003,189.415,100.75,191.189,102.917,191.189z"/>
	<path opacity="0.5" fill="#1E6BAE" enable-background="new    " d="M116.771,191.466c2.311,0,4.178-1.899,4.178-4.237
		c0-2.334-1.867-4.234-4.178-4.234c-2.321,0-4.187,1.9-4.187,4.234C112.584,189.566,114.45,191.466,116.771,191.466z"/>
	<path opacity="0.5" fill="#1E6BAE" enable-background="new    " d="M130.616,190.336c1.69,0,3.069-1.387,3.069-3.107
		c0-1.719-1.379-3.104-3.069-3.104c-1.692,0-3.072,1.386-3.072,3.104C127.544,188.949,128.923,190.336,130.616,190.336z"/>
	<path opacity="0.5" fill="#1E6BAE" enable-background="new    " d="M144.468,188.939c0.929,0,1.681-0.77,1.681-1.709
		c0-0.94-0.752-1.711-1.681-1.711c-0.938,0-1.688,0.771-1.688,1.711C142.777,188.17,143.529,188.939,144.468,188.939z"/>
	<path opacity="0.5" fill="#1E6BAE" enable-background="new    " d="M158.313,190.525c1.804,0,3.267-1.473,3.267-3.295
		c0-1.824-1.463-3.307-3.267-3.307c-1.803,0-3.258,1.482-3.258,3.307C155.055,189.053,156.51,190.525,158.313,190.525z"/>
	<path opacity="0.5" fill="#1E6BAE" enable-background="new    " d="M172.164,191.001c2.057,0,3.721-1.69,3.721-3.771
		s-1.664-3.771-3.721-3.771s-3.729,1.691-3.729,3.771S170.107,191.001,172.164,191.001z"/>
	<path opacity="0.5" fill="#1E6BAE" enable-background="new    " d="M186.009,190.915c2.017,0,3.654-1.644,3.654-3.685
		c0-2.043-1.638-3.686-3.654-3.686c-2.009,0-3.646,1.643-3.646,3.686C182.363,189.271,183.999,190.915,186.009,190.915z"/>
	<path opacity="0.5" fill="#1E6BAE" enable-background="new    " d="M199.861,187.771c0.289,0,0.533-0.237,0.533-0.543
		c0-0.303-0.244-0.539-0.533-0.539c-0.301,0-0.534,0.236-0.534,0.539C199.327,187.534,199.561,187.771,199.861,187.771z"/>
	<path opacity="0.5" fill="#1E6BAE" enable-background="new    " d="M213.706,190.8c1.953,0,3.53-1.595,3.53-3.571
		c0-1.975-1.577-3.57-3.53-3.57c-1.944,0-3.534,1.596-3.534,3.57C210.172,189.205,211.764,190.8,213.706,190.8z"/>
	<path opacity="0.5" fill="#1E6BAE" enable-background="new    " d="M61.369,201.742c0.27,0,0.498-0.229,0.498-0.503
		c0-0.285-0.227-0.513-0.498-0.513c-0.274,0-0.498,0.228-0.498,0.513C60.871,201.514,61.095,201.742,61.369,201.742z"/>
	<path opacity="0.5" fill="#1E6BAE" enable-background="new    " d="M75.22,206.007c2.612,0,4.715-2.138,4.715-4.768
		c0-2.64-2.103-4.777-4.715-4.777c-2.608,0-4.721,2.138-4.721,4.777C70.499,203.869,72.612,206.007,75.22,206.007z"/>
	<path opacity="0.5" fill="#1E6BAE" enable-background="new    " d="M89.065,205.541c2.358,0,4.264-1.927,4.264-4.302
		c0-2.384-1.906-4.313-4.264-4.313c-2.347,0-4.264,1.929-4.264,4.313C84.8,203.614,86.718,205.541,89.065,205.541z"/>
	<path opacity="0.5" fill="#1E6BAE" enable-background="new    " d="M102.917,204.962c2.04,0,3.693-1.672,3.693-3.723
		c0-2.062-1.653-3.733-3.693-3.733c-2.037,0-3.69,1.672-3.69,3.733C99.227,203.29,100.88,204.962,102.917,204.962z"/>
	<path opacity="0.5" fill="#1E6BAE" enable-background="new    " d="M116.771,202.246c0.545,0,0.996-0.456,0.996-1.007
		c0-0.562-0.451-1.017-0.996-1.017c-0.564,0-1.004,0.455-1.004,1.017C115.767,201.79,116.207,202.246,116.771,202.246z"/>
	<path opacity="0.5" fill="#1E6BAE" enable-background="new    " d="M130.616,204.031c1.52,0,2.76-1.254,2.76-2.791
		c0-1.549-1.24-2.803-2.76-2.803c-1.522,0-2.76,1.254-2.76,2.803C127.855,202.777,129.094,204.031,130.616,204.031z"/>
	<path opacity="0.5" fill="#1E6BAE" enable-background="new    " d="M144.468,202.787c0.845,0,1.53-0.691,1.53-1.548
		c0-0.864-0.686-1.558-1.53-1.558c-0.854,0-1.538,0.693-1.538,1.558C142.928,202.096,143.613,202.787,144.468,202.787z"/>
	<path opacity="0.5" fill="#1E6BAE" enable-background="new    " d="M158.313,204.459c1.764,0,3.184-1.443,3.184-3.22
		c0-1.786-1.42-3.23-3.184-3.23c-1.756,0-3.186,1.445-3.186,3.23C155.127,203.016,156.557,204.459,158.313,204.459z"/>
	<path opacity="0.5" fill="#1E6BAE" enable-background="new    " d="M172.164,202.17c0.508,0,0.922-0.418,0.922-0.93
		c0-0.523-0.414-0.941-0.922-0.941c-0.518,0-0.921,0.418-0.921,0.941C171.243,201.752,171.646,202.17,172.164,202.17z"/>
	<path opacity="0.5" fill="#1E6BAE" enable-background="new    " d="M186.009,204.07c1.55,0,2.81-1.274,2.81-2.831
		c0-1.567-1.26-2.841-2.81-2.841c-1.549,0-2.798,1.273-2.798,2.841C183.211,202.796,184.46,204.07,186.009,204.07z"/>
	<path opacity="0.5" fill="#1E6BAE" enable-background="new    " d="M199.861,204.07c1.55,0,2.799-1.274,2.799-2.831
		c0-1.567-1.249-2.841-2.799-2.841c-1.549,0-2.809,1.273-2.809,2.841C197.053,202.796,198.313,204.07,199.861,204.07z"/>
	<path opacity="0.5" fill="#1E6BAE" enable-background="new    " d="M213.706,201.391c0.083,0,0.16-0.066,0.16-0.151
		s-0.076-0.162-0.16-0.162c-0.087,0-0.149,0.075-0.149,0.162C213.557,201.324,213.619,201.391,213.706,201.391z"/>
	<path opacity="0.5" fill="#1E6BAE" enable-background="new    " d="M61.369,216.368c0.611,0,1.119-0.503,1.119-1.129
		c0-0.618-0.508-1.121-1.119-1.121c-0.611,0-1.119,0.503-1.119,1.121C60.25,215.865,60.758,216.368,61.369,216.368z"/>
	<path opacity="0.5" fill="#1E6BAE" enable-background="new    " d="M75.22,216.057c0.444,0,0.809-0.361,0.809-0.817
		c0-0.447-0.365-0.817-0.809-0.817c-0.451,0-0.805,0.37-0.805,0.817C74.416,215.695,74.769,216.057,75.22,216.057z"/>
	<path opacity="0.5" fill="#1E6BAE" enable-background="new    " d="M89.065,217.955c1.483,0,2.686-1.216,2.686-2.716
		c0-1.501-1.202-2.718-2.686-2.718s-2.686,1.217-2.686,2.718C86.379,216.739,87.582,217.955,89.065,217.955z"/>
	<path opacity="0.5" fill="#1E6BAE" enable-background="new    " d="M102.917,220.055c2.631,0,4.761-2.156,4.761-4.815
		s-2.13-4.815-4.761-4.815c-2.629,0-4.759,2.156-4.759,4.815S100.288,220.055,102.917,220.055z"/>
	<path opacity="0.5" fill="#1E6BAE" enable-background="new    " d="M116.771,217.139c1.032,0,1.877-0.846,1.877-1.899
		c0-1.056-0.845-1.9-1.877-1.9c-1.041,0-1.886,0.845-1.886,1.9C114.885,216.293,115.73,217.139,116.771,217.139z"/>
	<path opacity="0.5" fill="#1E6BAE" enable-background="new    " d="M130.616,216.17c0.505,0,0.919-0.419,0.919-0.931
		c0-0.513-0.414-0.931-0.919-0.931c-0.507,0-0.921,0.418-0.921,0.931C129.695,215.751,130.109,216.17,130.616,216.17z"/>
	<path opacity="0.5" fill="#1E6BAE" enable-background="new    " d="M144.468,219.436c2.291,0,4.142-1.879,4.142-4.196
		c0-2.318-1.851-4.189-4.142-4.189c-2.29,0-4.149,1.871-4.149,4.189C140.318,217.555,142.177,219.436,144.468,219.436z"/>
	<path opacity="0.5" fill="#1E6BAE" enable-background="new    " d="M158.313,217.414c1.192,0,2.15-0.969,2.15-2.175
		c0-1.197-0.958-2.177-2.15-2.177c-1.185,0-2.15,0.979-2.15,2.177C156.162,216.443,157.128,217.414,158.313,217.414z"/>
	<path opacity="0.5" fill="#1E6BAE" enable-background="new    " d="M172.164,217.377c1.166,0,2.115-0.961,2.115-2.138
		c0-1.179-0.949-2.138-2.115-2.138c-1.174,0-2.113,0.959-2.113,2.138C170.051,216.416,170.99,217.377,172.164,217.377z"/>
	<path opacity="0.5" fill="#1E6BAE" enable-background="new    " d="M186.01,217.377c1.162,0,2.11-0.961,2.11-2.138
		c0-1.179-0.948-2.138-2.11-2.138c-1.166,0-2.113,0.959-2.113,2.138C183.896,216.416,184.844,217.377,186.01,217.377z"/>
	<path opacity="0.5" fill="#1E6BAE" enable-background="new    " d="M199.861,218.771c1.927,0,3.492-1.576,3.492-3.532
		c0-1.948-1.565-3.534-3.492-3.534c-1.934,0-3.492,1.586-3.492,3.534C196.369,217.195,197.928,218.771,199.861,218.771z"/>
	<path opacity="0.5" fill="#1E6BAE" enable-background="new    " d="M213.706,215.277c0.028,0,0.037-0.02,0.037-0.038
		s-0.011-0.038-0.037-0.038c-0.021,0-0.04,0.02-0.04,0.038S213.686,215.277,213.706,215.277z"/>
	<path opacity="0.5" fill="#1E6BAE" enable-background="new    " d="M75.22,229.4c0.087,0,0.15-0.068,0.15-0.152
		c0-0.086-0.063-0.162-0.15-0.162c-0.094,0-0.15,0.076-0.15,0.162C75.07,229.332,75.126,229.4,75.22,229.4z"/>
	<path opacity="0.5" fill="#1E6BAE" enable-background="new    " d="M89.065,229.939c0.384,0,0.695-0.313,0.695-0.691
		c0-0.391-0.311-0.703-0.695-0.703c-0.377,0-0.694,0.313-0.694,0.703C88.371,229.628,88.688,229.939,89.065,229.939z"/>
	<path opacity="0.5" fill="#1E6BAE" enable-background="new    " d="M102.917,231.146c1.045,0,1.879-0.854,1.879-1.898
		c0-1.055-0.834-1.909-1.879-1.909c-1.042,0-1.887,0.854-1.887,1.909C101.03,230.293,101.875,231.146,102.917,231.146z"/>
	<path opacity="0.5" fill="#1E6BAE" enable-background="new    " d="M116.771,233.977c2.582,0,4.675-2.117,4.675-4.729
		c0-2.622-2.093-4.739-4.675-4.739c-2.59,0-4.695,2.117-4.695,4.739C112.076,231.859,114.181,233.977,116.771,233.977z"/>
	<path opacity="0.5" fill="#1E6BAE" enable-background="new    " d="M130.616,233.977c2.592,0,4.686-2.117,4.686-4.729
		c0-2.622-2.094-4.739-4.686-4.739c-2.594,0-4.688,2.117-4.688,4.739C125.928,231.859,128.022,233.977,130.616,233.977z"/>
	<path opacity="0.5" fill="#1E6BAE" enable-background="new    " d="M144.468,230.721c0.8,0,1.456-0.656,1.456-1.473
		s-0.656-1.482-1.456-1.482c-0.808,0-1.466,0.666-1.466,1.482S143.66,230.721,144.468,230.721z"/>
	<path opacity="0.5" fill="#1E6BAE" enable-background="new    " d="M158.313,230.607c0.742,0,1.343-0.608,1.343-1.359
		c0-0.75-0.601-1.357-1.343-1.357c-0.744,0-1.345,0.607-1.345,1.357C156.968,229.999,157.568,230.607,158.313,230.607z"/>
	<path opacity="0.5" fill="#1E6BAE" enable-background="new    " d="M172.164,230.605c0.742,0,1.343-0.607,1.343-1.357
		s-0.601-1.357-1.343-1.357c-0.741,0-1.342,0.607-1.342,1.357S171.423,230.605,172.164,230.605z"/>
	<path opacity="0.5" fill="#1E6BAE" enable-background="new    " d="M186.01,232.04c1.529,0,2.768-1.253,2.768-2.792
		c0-1.547-1.238-2.803-2.768-2.803c-1.523,0-2.762,1.256-2.762,2.803C183.248,230.786,184.486,232.04,186.01,232.04z"/>
	<path opacity="0.5" fill="#1E6BAE" enable-background="new    " d="M102.917,243.523c0.143,0,0.273-0.123,0.273-0.275
		s-0.13-0.266-0.273-0.266c-0.15,0-0.271,0.113-0.271,0.266S102.767,243.523,102.917,243.523z"/>
	<path opacity="0.5" fill="#1E6BAE" enable-background="new    " d="M158.313,244.995c0.957,0,1.728-0.779,1.728-1.748
		c0-0.959-0.771-1.747-1.728-1.747s-1.729,0.788-1.729,1.747C156.583,244.216,157.355,244.995,158.313,244.995z"/>
	<path opacity="0.5" fill="#1E6BAE" enable-background="new    " d="M172.164,243.447c0.104,0,0.188-0.086,0.188-0.2
		c0-0.104-0.084-0.19-0.188-0.19c-0.113,0-0.196,0.086-0.196,0.19C171.968,243.361,172.051,243.447,172.164,243.447z"/>
	<path opacity="0.5" fill="#1E6BAE" enable-background="new    " d="M186.009,243.789c0.302,0,0.535-0.238,0.535-0.541
		c0-0.294-0.233-0.542-0.535-0.542c-0.293,0-0.536,0.248-0.536,0.542C185.473,243.551,185.715,243.789,186.009,243.789z"/>
</g>
<path fill="#FFFFFF" d="M175.93,223.094c0,2.913-2.379,5.283-5.305,5.283h-68.959c-2.925,0-5.304-2.37-5.304-5.283v-21.128h49.809
	c1.457,1.608,3.546,2.642,5.888,2.642h23.871V223.094z"/>
<path fill="#FFFFFF" d="M96.362,85.758c0-2.913,2.379-5.282,5.304-5.282h68.959c2.926,0,5.305,2.369,5.305,5.282v13.206H96.362
	V85.758z"/>
<path fill="#CEE7F4" d="M170.625,77.834h-34.479v153.183h34.479c4.395,0,7.957-3.547,7.957-7.924V85.758
	C178.582,81.382,175.02,77.834,170.625,77.834z"/>
<path fill="#FFFFFF" d="M178.582,101.604H93.709v97.721h84.873V101.604z"/>
<path fill="#CEE7F4" d="M136.146,112.169H56.578v42.257h79.569V112.169z"/>
<path fill="#CEE7F4" d="M221.018,159.708v36.976c0,2.918-2.373,5.282-5.305,5.282h-63.654c-2.931,0-5.304-2.364-5.304-5.282v-36.976
	c0-2.918,2.373-5.282,5.304-5.282h63.654C218.645,154.426,221.018,156.79,221.018,159.708z"/>
<path fill="#0E3847" d="M136.146,204.607c-5.851,0-10.609,4.736-10.609,10.563c0,5.826,4.759,10.563,10.609,10.563
	c5.85,0,10.608-4.737,10.608-10.563C146.755,209.344,141.996,204.607,136.146,204.607z M136.146,220.453
	c-2.926,0-5.306-2.369-5.306-5.282s2.379-5.282,5.306-5.282c2.924,0,5.304,2.369,5.304,5.282S139.07,220.453,136.146,220.453z"/>
<path fill="#0E3847" d="M149.407,88.399h-26.522v5.282h26.522V88.399z"/>
<path fill="#1B388B" d="M215.713,151.785h-34.479v-47.54v-5.282V85.758c0-5.826-4.76-10.564-10.609-10.564h-68.959
	c-5.85,0-10.608,4.738-10.608,10.564v13.206v5.283v5.282H53.926v47.539h37.132v39.617v5.282v21.13
	c0,5.825,4.759,10.563,10.608,10.563h68.959c5.85,0,10.609-4.738,10.609-10.563v-18.488h34.479c4.389,0,7.957-3.556,7.957-7.924
	v-36.976C223.67,155.34,220.1,151.785,215.713,151.785z M218.366,159.708v5.283h-68.959v-5.283c0-1.458,1.19-2.642,2.651-2.642
	h63.654C217.174,157.066,218.366,158.25,218.366,159.708z M96.362,85.758c0-2.913,2.379-5.282,5.304-5.282h68.959
	c2.926,0,5.305,2.369,5.305,5.282v13.206H96.362V85.758z M133.494,119.865c-2.058-1.004-4.003-2.945-5.063-5.055h5.063V119.865z
	 M122.712,114.81l0.337,0.911c1.561,4.236,5.41,8.058,9.569,9.508l0.875,0.301v15.516l-0.915,0.335
	c-4.257,1.558-8.092,5.389-9.545,9.53l-0.305,0.874H70.011l-0.337-0.912c-1.562-4.236-5.41-8.057-9.569-9.508l-0.875-0.3v-15.517
	l0.916-0.335c4.257-1.558,8.092-5.388,9.544-9.529l0.306-0.874H122.712z M133.494,146.744v5.041h-5.077
	C129.425,149.736,131.374,147.8,133.494,146.744z M64.307,114.81c-1.008,2.049-2.958,3.985-5.077,5.042v-5.042H64.307z
	 M59.23,146.73c2.058,1.004,4.003,2.944,5.063,5.055H59.23V146.73z M138.798,157.066v-47.539H96.362v-5.283h79.568v47.54h-23.871
	c-4.386,0-7.955,3.555-7.955,7.923v36.976H96.362v-39.617H138.798z M175.93,223.094c0,2.913-2.379,5.283-5.305,5.283h-68.959
	c-2.925,0-5.304-2.37-5.304-5.283v-21.128h49.809c1.457,1.608,3.546,2.642,5.888,2.642h23.871V223.094z M215.713,199.325h-63.654
	c-1.461,0-2.651-1.183-2.651-2.642v-21.129h68.958v21.129C218.366,198.143,217.174,199.325,215.713,199.325z"/>
<path fill="#FFFFFF" d="M120.232,130.656h-5.304v5.282h5.304V130.656z"/>
<path fill="#FFFFFF" d="M77.796,130.656h-5.305v5.282h5.305V130.656z"/>
<path fill="#1B388B" d="M96.362,146.503c7.312,0,13.261-5.924,13.261-13.206c0-7.282-5.949-13.205-13.261-13.205
	c-7.313,0-13.261,5.923-13.261,13.205C83.101,140.579,89.049,146.503,96.362,146.503z M96.362,125.374
	c4.387,0,7.957,3.555,7.957,7.924c0,4.368-3.57,7.923-7.957,7.923c-4.387,0-7.957-3.555-7.957-7.923
	C88.405,128.929,91.975,125.374,96.362,125.374z"/>
<path fill="#FFFFFF" d="M175.93,188.76h-21.218v5.282h21.218V188.76z"/>
<path fill="#FFFFFF" d="M191.843,188.76h-10.608v5.282h10.608V188.76z"/>
<path fill="#1B388B" stroke="#0E3847" stroke-width="2" stroke-linecap="round" stroke-miterlimit="10" d="M136.146,223.094
	c4.394,0,7.957-3.547,7.957-7.923s-3.563-7.923-7.957-7.923c-4.396,0-7.958,3.547-7.958,7.923S131.751,223.094,136.146,223.094z"/>
<path fill="#FFFFFF" d="M96.362,141.221c4.394,0,7.957-3.547,7.957-7.923s-3.563-7.924-7.957-7.924
	c-4.395,0-7.957,3.548-7.957,7.924S91.967,141.221,96.362,141.221z"/>
</svg>
